<?xml version="1.0" encoding="utf-8"?>
<!-- Generator: Adobe Illustrator 23.0.2, SVG Export Plug-In . SVG Version: 6.00 Build 0)  -->
<svg version="1.1" id="Capa_1" xmlns="http://www.w3.org/2000/svg" xmlns:xlink="http://www.w3.org/1999/xlink" x="0px" y="0px"
	 viewBox="0 0 680 938" style="enable-background:new 0 0 680 938;" xml:space="preserve">
<style type="text/css">
	.st0{fill:#FFFFFF;}
</style>
<g>
	<path class="st0" d="M445.4,469.5c14.2,6.1,24.4,15.3,31.5,27.9c9.9,17.7,12.2,36.8,10.7,56.6c-1.6,19.9-7.6,38.2-20.7,53.6
		c-13.1,15.4-30.7,22.5-50,25.7c-27.2,4.5-54.4,3.4-81.6-0.6c-4.1-0.6-5.4-2.2-5.4-6.4c0.1-95.6,0.1-191.3-0.1-286.9
		c0-4.5,1.7-6,5.7-6.7c28.4-4.7,56.9-6.9,85.5-3c32,4.4,54.8,28.3,58.8,62c2.2,18.3,0.2,35.9-8.9,52.3c-5,9.1-11.9,16.4-20.6,22.1
		C448.9,466.9,447.6,467.9,445.4,469.5z M377.3,541.6c0,12.8,0.1,25.7,0,38.5c0,3.2,1,5,4.5,5c6.3,0,12.7,0.7,19,0.2
		c19.5-1.6,31.8-12.2,35.4-31.4c1.3-6.9,1.4-14.3,0.7-21.3c-1.6-16.1-11.9-28-27.8-31.5c-8.5-1.8-17.5-1.4-26.3-2.3
		c-4.6-0.4-5.6,1.6-5.6,5.8C377.4,516.9,377.2,529.2,377.3,541.6z M377.3,414.8c0,10.5,0.1,21,0,31.5c0,2.7,0.7,4,3.6,3.9
		c6.5-0.3,13,0,19.5-0.6c7.9-0.7,15.2-3.4,21.2-9c10.9-10.3,14.2-30.3,7.4-45.6c-3.7-8.4-9.9-14.4-18.7-15.6
		c-9.3-1.3-18.8-0.7-28.2-0.9c-3.6-0.1-4.9,1.7-4.8,5.3C377.4,394.1,377.3,404.4,377.3,414.8z"/>
	<path class="st0" d="M279.2,194.2c-5.9-5.9-11.9-10.6-16.4-16.4c-7.6-9.9-3.3-21.5,8.9-24.2c6.1-1.3,12.6-1,18.9-1.2
		c6.7-0.3,13.3-0.3,20.5-5.1c-2.8-2.7-4.9-5.6-7.7-7.2c-4.8-2.6-10.1-4.3-15.1-6.6c-10.4-4.7-11.8-11.4-4.3-19.7
		c0.9-1,1.5-2.3,2.5-3.1c1.1-1,2.6-1.7,4.8-3.1c-1.1-2.4-2.8-5.7-4.5-9.2c11.1-1.4,17.7,8.3,15,19c2.8,5.3,5.1,9.7,7.6,14.4
		c0.7-1,1.3-1.9,2.8-4.1c3,6,6.4,11.1,8.1,16.8c2.2,7.4-2.2,13.6-10,14.9c-4.9,0.8-9.9,0.5-14.9,0.6c-6.5,0.2-13,0-19.4,0.5
		c-4,0.3-6.6,3-7.4,7.1c-0.8,3.9,0.2,7.6,3.6,9.7c4.1,2.5,9,3.6,12.9,6.3c8,5.6,15,2.6,22.7-0.6c7-2.9,14.6-4.2,21.9-6.4
		c5.8-1.8,11.9-3.2,17.3-6c7.5-3.8,14.4-9,21.9-13c5.3-2.9,11-5.4,16.9-6.9c12.3-3.1,22.2-19.8,18.2-31.9c-1.2-3.8-3.2-6-7.8-6.2
		c-6.4-0.4-11-4.1-13.6-10.7c2-0.7,3.6-1.3,5.7-2c-10.3-6.8-13.7-16.4-12.2-28c1.4-11.3,11.4-18.4,22.4-14.7
		c-2.8,1.8-5.2,3.5-7.8,4.9c-4.6,2.6-6.3,6.6-5.8,11.7c0.4,5.2,3,9.1,7.7,10.7c4.3,1.5,9.1,2.4,13.6,2.4c13.3-0.3,26.6-1.4,39.9-1.8
		c7.9-0.3,15.3,1.1,22.3,5.8c7.9,5.3,22.2-3.8,22.5-14.3c0.1-4.7-1.9-9.5-2.8-13.8c6.9,1.4,12,7,12.9,15
		c1.4,12.1-5.6,22.7-19.1,28.6c2,1.4,3.9,2.6,6.1,4.1c-2.1,5.1-4.2,9.9-11.4,9.8c5.7,11.8,4.6,24,5.5,36.1
		c0.7,9.2,3.2,18.3,4.2,27.6c0.6,6.2-0.1,12.5-0.2,18.8c0,1.2-0.1,2.6,0.3,3.7c2.5,6.8,5.6,13.5,7.5,20.4
		c2.1,7.7,5.3,14.5,10.5,20.7c3.2,3.8,4.5,9,6.9,13.4c1,1.8,2.4,3.6,4,4.8c6,4.5,12.5,8.4,18.2,13.2c4.6,3.9,8.4,8.8,12.5,13.2
		c-6,5.6-20,6.1-25.1,1.7c-0.6-0.5-1.1-1.3-1.4-2c-5-13.8-15.8-21.9-27.9-28.8c-2.7-1.6-4.7-3.1-5.5-6.5c-1.1-4.8-5-7.1-9.3-8.9
		c-5.6,9.6-9.5,11.4-21,9.7c-5.7-0.9-11.4-1.9-19-3.2c1.5,3.7,2,6.6,3.7,8.6c3.7,4.6,6.6,9.4,7.6,15.4c0.4,2.2,2.6,5.3,4.6,5.9
		c8.6,2.6,13.7,9.1,19,15.6c2.2,2.7,4.3,5.4,7.7,9.7c-7.5,0.4-13.6,1.2-19.7,0.8c-2.3-0.1-4.4-3-6.5-4.6c-0.1-0.1-0.1-0.3-0.2-0.4
		c-8.1-6.4-9.9-18.7-20.9-22.4c-1.9-0.6-3.9-2.5-4.7-4.3c-4.9-10-16.2-12-23.3-19.2c-0.5-0.5-2-0.6-2.8-0.3
		c-13.6,4.6-26.9,2.9-40.2-1.1c-0.3-0.1-0.6,0.1-2.3,0.2c1.3,2.2,2.2,4.1,3.5,5.7c4.2,4.9,3.6,9.6-2.5,11.8
		c-5.7,2.1-11.9,2.8-17.9,4.2c-3.6,0.9-7.2,1.9-12.3,3.3c4.5,3.9,7.6,6.8,11,9.3c4.6,3.5,9.6,6.6,14.2,10.2c5.3,4.2,8.1,10,9,17.4
		c-4.8,0-9.3,0.1-13.9,0c-3.1-0.1-5.7-0.8-5.2-4.9c0.1-0.7-0.3-1.8-0.9-2.2c-8.6-7.1-17.2-14.1-25.9-21c-1.4-1.1-3.3-1.6-5-2.2
		c-5.8-2-6.8-6.9-2-10.9c2.3-1.9,5.1-3.1,7.6-4.8c3-2,6.7-3.9,5.6-8.4c-1.1-4.7-4.6-6.8-9.1-7.2c-2.8-0.2-5.7,0.2-8.5,0
		c-6.1-0.3-12.1-0.9-18.2-1.3c-1.3-0.1-2.6,0-3.9,0.1c-8.7,1.1-11.4-0.4-14.8-8.8c-21.5,2.1-42.4,5.8-56.5,24.7
		c-4.1,5.5-6.5,12.3-8.8,18.8c-1.2,3.2-2.7,4.9-5.8,4.8c-5.3-0.2-10.6-0.7-16.3-1.1c1.1-7.2,4.2-12.8,8.7-17.5
		c5.7-5.8,11.8-11.2,17.7-16.9c6.2-5.8,10.8-12.5,13.1-20.9c0.4-1.5,2.3-3,3.8-3.6c4.2-1.4,7.3-3.7,10.2-7.3
		c3.4-4.2,8.4-7.3,12.6-10.9c0.9-0.8,2.1-1.7,2.5-2.8c2.1-6.5,7-10.3,12.8-13.3C268.8,199.6,274.2,196.8,279.2,194.2z"/>
	<path class="st0" d="M301.2,633c-14.5,0-27.9,0.1-41.4,0c-10.9-0.1-10.8-0.2-13-10.8c-4.6-22.1-9.4-44.2-14.3-66.9
		c-4.2,0-8.4,0-12.5,0c-14.5,0-29,0.1-43.5-0.1c-3.8-0.1-5.4,0.9-6.2,5c-4.2,22.9-8.9,45.8-13.3,68.6c-0.5,2.3-0.8,4.1-3.8,4.1
		c-14.8-0.1-29.7-0.1-44.5-0.1c-0.5,0-0.9-0.3-1.9-0.6c1.7-8.2,3.4-16.5,5.2-24.7c11-51.3,22-102.5,32.9-153.8
		c8.6-40.2,17.2-80.4,25.9-120.6c0.3-1.3,2.1-3.2,3.2-3.2c20-0.2,40-0.1,60.6-0.1C256.9,430.6,279,531.3,301.2,633z M201.3,382.2
		c-7.5,40.8-14.9,81-22.3,121.4c15.7,0,31,0,46.4,0C217.3,462.9,209.3,422.8,201.3,382.2z"/>
	<path class="st0" d="M521.3,330c15.7,0,31.2,0,47.1,0c0,100.8,0,201.5,0,302.6c-15.5,0-31.1,0-47.1,0
		C521.3,531.8,521.3,431.2,521.3,330z"/>
	<path class="st0" d="M500.5,735c0-26.8,0-52.3,0-78.2c4,0,8.2,0,12.8,0c0.1,1.3,0.4,2.5,0.4,3.8c0,37.2,0,74.3,0.1,111.5
		c0,3.5-1,4.8-4.4,4.6c-3.1-0.2-6.3,0-10.3,0c-6.6-25.2-13.2-50.3-20.2-76.8c0,6.7,0,12,0,17.3c0.1,18.2,0,36.3,0.3,54.5
		c0.1,4-1,5.3-5,5.1c-9.3-0.4-8.6,1.5-8.6-8.5c0-35,0-70,0-105c0-7,0-7.1,6.7-6.9c9.3,0.2,7.2-1.5,9.7,7.7
		c5.9,22.2,11.5,44.5,17.2,66.7C499.4,731.8,499.8,732.9,500.5,735z"/>
	<path class="st0" d="M259.7,776.7c-4.5,0-8.3,0.4-12-0.2c-1.4-0.2-3.1-2.3-3.6-3.8c-5.9-22.2-11.5-44.4-17.2-66.7
		c-0.4-1.6-0.8-3.2-2.2-4.8c0,1.5,0,3,0,4.4c0.1,22,0.2,44,0.5,65.9c0.1,3.9-1,5.3-5,5.2c-10-0.3-8.5,0.9-8.5-8.5
		c-0.1-35.5,0-70.9-0.2-106.4c0-4.5,1.4-5.7,5.7-5.5c10.9,0.4,8.3-1.5,11,8.6c5.8,21.7,11.3,43.5,16.9,65.2c0.3,1.2,0.8,2.4,1.6,4.7
		c0-7.7,0.1-14.2,0-20.8c-0.2-17.8-0.4-35.6-0.7-53.4c-0.1-3.4,1.2-4.4,4.3-4.3c11.6,0.3,9.4-1,9.4,9.1c0.1,34.3,0.1,68.6,0.1,102.9
		C259.8,770.8,259.7,773.3,259.7,776.7z"/>
	<path class="st0" d="M411.8,720c6.5,6.1,8.1,14,9.2,22.2c1.5,11.2,3.2,22.4,4.9,34.4c-4.8,0-9.6,0.2-14.2-0.2
		c-1-0.1-2.3-2.6-2.5-4.1c-1.5-10-2.5-20.1-4-30.2c-0.6-3.7-1.8-7.5-3.6-10.7c-0.9-1.5-3.9-1.8-5.9-2.7c-0.5,1.7-1.3,3.3-1.3,5
		c-0.1,12.7-0.2,25.3,0,38c0.1,3.8-1,5.2-5.1,5.1c-10.4-0.2-10.4,0-10.4-10.1c0-34.6,0-69.3-0.1-103.9c0-3.7,0.9-5.7,4.7-5.9
		c5.5-0.3,10.9-1.2,16.4-1c12.3,0.5,20.7,8.1,23,21C425.6,692.7,424.8,707.9,411.8,720z M394.2,710c5.4,1.4,8.7-0.4,10.8-4.7
		c4.1-8.4,4.1-17.1,0.7-25.5c-1-2.5-4.6-4.3-7.4-5.7c-0.7-0.4-3.9,1.8-4,2.8C394.1,687.9,394.2,699,394.2,710z"/>
	<path class="st0" d="M368.2,712.3c-0.3,20.1-1,35.9-7.3,50.7c-1.2,2.7-2.7,5.4-4.5,7.8c-7.7,10.3-21.2,10.1-28.8-0.2
		c-5.4-7.3-7.7-15.8-9.1-24.6c-3.7-22.7-4-45.5,2.6-67.8c1.6-5.3,4.1-10.6,7.3-15.2c8.3-11.9,23.5-11.4,30,1.6
		c4.1,8.1,6.4,17.4,8.2,26.5C368.2,699.4,367.9,708,368.2,712.3z M352.6,716.1c-0.2,0-0.4-0.1-0.6-0.1c-0.4-7.3-0.4-14.6-1.2-21.9
		c-0.6-5.1-2-10.1-3.7-14.9c-0.6-1.7-3-3.6-4.6-3.7c-1.6-0.1-3.9,1.8-4.8,3.4c-1.4,2.4-2.5,5.2-2.7,7.9c-1,12.9-2,25.8-2.1,38.7
		c-0.1,7.7,1.2,15.6,2.7,23.2c0.7,3.8,1.7,9.2,7.1,8.8c5.2-0.3,5.9-5.5,6.5-9.4C350.5,737.5,351.5,726.8,352.6,716.1z"/>
	<path class="st0" d="M575.7,715.4c-0.1,16.2-0.3,32.4-7,47.5c-1.9,4.3-4.8,8.5-8.4,11.5c-7.9,6.6-18.3,4.8-24.5-3.5
		c-6-8-8.4-17.3-9.8-26.9c-3-19.7-3.5-39.6,1.2-59c1.8-7.6,4.8-15.4,9-21.9c8.1-12.4,23-11.1,30.4,1.8c6.6,11.6,8.1,24.5,9,37.5
		C576,706.8,575.7,711.1,575.7,715.4z M560.4,716.1c-0.2,0-0.4,0-0.6-0.1c-0.3-7.2-0.3-14.4-1.1-21.5c-0.6-5.1-1.9-10.1-3.6-15
		c-0.6-1.8-3.1-4.1-4.8-4.1c-1.7,0-3.9,2.1-5.1,3.9c-1.3,2-2,4.6-2.4,7c-3.4,18.5-3.1,37.1-0.9,55.7c0.5,4.2,1.9,8.5,3.7,12.3
		c2.3,4.8,6.5,4.7,9-0.1c1.1-2.2,2.1-4.6,2.4-7C558.4,737,559.3,726.6,560.4,716.1z"/>
	<path class="st0" d="M149.8,776.7c1.5-10.7,2.9-20.5,4.4-30.4c4.2-28.5,8.5-56.9,12.5-85.4c0.5-3.6,1.7-4.7,5.2-4.8
		c14.3-0.4,14.3-0.5,16.1,13.4c4.6,34.5,9.1,68.9,13.6,103.4c0.1,1,0,2,0,3.8c-4.3,0-8.6,0.3-12.8-0.2c-1-0.1-2.3-2.5-2.5-4
		c-1-6.4-1.8-12.8-2.5-19.3c-0.3-2.9-1.5-3.9-4.4-4c-10.5-0.4-10.6-0.5-12.2,9.9c-0.6,4.1-1.2,8.2-1.5,12.4
		c-0.3,3.8-1.5,5.8-5.7,5.3C157,776.4,153.8,776.7,149.8,776.7z M181.9,730.7c-1.8-17-3.5-33.1-5.2-49.2c-0.3,0-0.5,0-0.8,0
		c-1.9,16.3-3.7,32.7-5.6,49.3C174.5,730.7,177.8,730.7,181.9,730.7z"/>
	<path class="st0" d="M106.2,753.5c2.5,1,4.2,1.8,5.8,2.4c5.2,2,10.4,3.1,14.9-1.3c4.7-4.6,5.5-10.7,3.2-16.2
		c-2-4.9-5.4-9.6-9.2-13.3c-16-15.5-20.6-36.3-11.8-55.6c5.3-11.7,17.1-17,28.9-13.2c3.5,1.1,5.8,2.7,4.9,7.1c-1,4.9-1.4,9.8-2,15.1
		c-1-0.3-1.7-0.5-2.2-0.7c-5.1-2.7-10.1-3.7-14.8,0.5c-3.5,3.2-4.9,11.3-2.2,16.4c2,3.7,4.7,7.3,7.9,10.1
		c16.6,14.2,19.8,32.1,14.7,52.1c-4.4,17.2-20.4,25.2-35.9,18.7c-3.2-1.3-4.8-2.8-4-6.7C105.3,764.1,105.5,759.1,106.2,753.5z"/>
	<path class="st0" d="M268.4,677.6c0-6.6-0.1-12.7,0.2-18.8c0-0.9,2.1-2.5,3.2-2.5c12.7-0.2,25.3-0.2,38,0c1.1,0,3.1,1.9,3.2,3
		c0.3,5.8,0.2,11.6,0.2,18.1c-4.7,0-9.1,0-14.3,0c0,33.3,0,66,0,99c-5.5,0-10.3,0-15.8,0c0-2,0-4,0-5.9c0-29.1-0.1-58.3,0.1-87.4
		c0-4.4-1.2-6.1-5.6-5.5C274.7,677.9,271.9,677.6,268.4,677.6z"/>
	<path class="st0" d="M450.5,776.4c-4.9,0-9.7,0-14.8,0c0-39.8,0-79.5,0-119.6c4.9,0,9.6,0,14.8,0
		C450.5,696.5,450.5,736.3,450.5,776.4z"/>
	<path class="st0" d="M352.6,864c0-21.5,0-42.2,0-63.3c2.6,0,5,0,7.7,0c0,26.9,0,53.7,0,80.4c-8.1,1.6-8.4,1.4-11.1-5.6
		c-7.3-18.5-14.6-37.1-22.2-56.4c0,21.2,0,41.7,0,62.4c-2.8,0-5.2,0-7.8,0c0-27,0-53.7,0-80.4c8.2-1.2,8.2-1.2,10.8,5.6
		C337.5,825.5,344.9,844.4,352.6,864z"/>
	<path class="st0" d="M506.9,841.7c-2.1,9.3-3.6,18.9-6.6,27.9c-2.7,8.1-9,13.1-18.2,13.1c-9.1,0-14.8-5.3-17.7-13.1
		c-7.1-18.7-7.3-37.8,0.2-56.5c1.6-3.9,4.9-7.6,8.3-10.3c7.8-6.2,18.3-4.4,24.3,3.7c6.9,9.1,7.8,20,8.3,30.9c0.1,1.3,0,2.7,0,4
		C505.9,841.5,506.4,841.6,506.9,841.7z M496.7,841.7c-0.3,0-0.6-0.1-1-0.1c0-1.7,0.2-3.4,0-5c-1.3-7.2-2.3-14.4-4.1-21.4
		c-1.1-4.2-4.3-7.3-9.1-7.3c-4.8,0-7.3,3.4-9.2,7.4c-0.3,0.6-0.5,1.2-0.7,1.9c-4.8,16.2-4.9,32.5,0.2,48.6c1.9,6.1,5.8,9.2,10.1,8.9
		c5.5-0.4,8.3-4.3,9.5-9C494.1,857.7,495.2,849.6,496.7,841.7z"/>
	<path class="st0" d="M194.8,867.4c4.5-22.7,8.9-44.6,13.2-66.7c3.4,0,6.5,0,10.1,0c-2.2,9.4-4.3,18.6-6.4,27.8
		c-3.8,16.2-7.7,32.4-11.3,48.7c-0.9,4.2-3.1,4.5-6.6,4.6c-3.6,0.1-4.7-1.2-5.5-4.6c-5.6-25.3-11.5-50.6-17.4-76.4
		c3.3,0,6.4,0,10.2,0C185.7,822.6,190.2,844.6,194.8,867.4z"/>
	<path class="st0" d="M117.8,835.3c6.8,0,13.2,0,19.9,0c0,2.8,0,5,0,7.8c-6.6,0-13.1,0-19.8,0c0,10.3,0,20,0,30.3
		c7.4,0,14.9,0,22.6,0c0,2.8,0,5.1,0,7.8c-10.5,0-21.2,0-32.2,0c0-26.8,0-53.3,0-80.4c10.1,0,20.2,0,30.6,0c0,2.3,0,4.7,0,7.7
		c-7,0-13.9,0-21.1,0C117.8,817.6,117.8,826,117.8,835.3z"/>
	<path class="st0" d="M261.1,873.8c7.9,0,15.2,0,22.7,0c0,2.6,0,4.9,0,7.6c-10.5,0-21.1,0-31.9,0c0-26.7,0-53.5,0-80.5
		c10.1,0,20.1,0,30.6,0c0,2.4,0,4.7,0,7.6c-6.9,0-13.8,0-21.2,0c0,9,0,17.6,0,26.7c6.3,0,12.7,0,19.6,0c0,2.8,0,5,0,8
		c-6.4,0-13,0-19.7,0C261.1,853.6,261.1,863.3,261.1,873.8z"/>
	<path class="st0" d="M569.1,810.7c-2-0.7-3.4-1.3-4.8-1.7c-6.5-1.9-12.7,0.2-15.3,5.1c-2.7,5.1-1.5,12.3,3.2,16.4
		c3.4,3,7.1,5.5,10.6,8.3c6.4,5.1,10.7,11.5,10.9,19.9c0.1,8.7-2.7,16-10.7,20.6c-7.7,4.4-18.2,4.2-25.9-0.8c0.6-2.2,1.3-4.6,2-7
		c3.2,0.8,6.1,1.8,9,2.2c5.6,0.9,10.8-0.2,14.1-5.3c3.5-5.6,3.1-11.6-0.6-16.9c-2-2.9-5.1-5.2-7.8-7.7c-3-2.7-6.3-4.9-9-7.8
		c-7.3-7.9-8.5-17.8-3.6-26.2c4.6-7.8,14.4-11.6,24.5-9.3c1.8,0.4,3.4,1.1,5.6,1.8C570.4,805.1,569.8,807.6,569.1,810.7z"/>
	<path class="st0" d="M409.3,808.8c-5.5,0-10,0-14.9,0c0-2.9,0-5.3,0-8c12.9,0,25.4,0,38.5,0c0,2.4,0,4.8,0,7.7c-4.3,0-8.9,0-14.1,0
		c0,24.6,0,48.6,0,73c-3.4,0-6.2,0-9.5,0C409.3,857.5,409.3,833.6,409.3,808.8z"/>
</g>
</svg>
